<svg width="30" height="30" viewBox="0 0 30 30" fill="none" xmlns="http://www.w3.org/2000/svg">
<g filter="url(#filter0_d_1153_1387)">
<path d="M24.2939 7.68387V10.6305H17.0311C16.2814 10.6305 15.6617 11.2503 15.6617 12V15.0467C15.6617 15.7964 16.2814 16.4161 17.0311 16.4161H24.2939V19.3628C24.2939 19.7383 24.0078 20.0244 23.6322 20.0244H6.3678C5.99228 20.0244 5.70613 19.7383 5.70613 19.3628V6.81084C5.98353 6.94477 6.29408 7.02221 6.62169 7.02221H6.62178C10.5229 7.01874 14.7302 7.02001 18.5709 7.02116C20.3603 7.02169 22.0701 7.02221 23.6322 7.02221C24.0078 7.02221 24.2939 7.30836 24.2939 7.68387ZM17.0309 11.8461H17.0311H24.2939V15.2005H17.0311C16.9803 15.2005 16.9431 15.1832 16.9189 15.1589C16.8946 15.1347 16.8772 15.0975 16.8772 15.0467V12C16.8772 11.9492 16.8946 11.9119 16.9189 11.8876C16.9432 11.8633 16.9803 11.846 17.0309 11.8461ZM6.62169 2.75999C5.45001 2.75999 4.49058 3.71942 4.49058 4.8911V19.3628C4.49058 20.3938 5.33677 21.24 6.3678 21.24H23.6322C24.6633 21.24 25.5095 20.3938 25.5095 19.3628V7.68387C25.5095 6.65285 24.6633 5.80665 23.6322 5.80665H22.4628V3.36776C22.4628 3.04666 22.1761 2.76002 21.855 2.75999H6.62169ZM6.62169 3.97554H21.2472V5.80665H6.62169C6.10551 5.80665 5.70613 5.40727 5.70613 4.8911C5.70613 4.37492 6.10551 3.97554 6.62169 3.97554ZM19.57 12.4078C18.9539 12.4078 18.4545 12.9072 18.4545 13.5233C18.4545 14.1394 18.9539 14.6389 19.57 14.6389C20.1861 14.6389 20.6856 14.1394 20.6856 13.5233C20.6856 12.9072 20.1861 12.4078 19.57 12.4078Z" fill="white" stroke="white" stroke-width="0.2"/>
</g>
<defs>
<filter id="filter0_d_1153_1387" x="-1" y="0" width="32" height="32" filterUnits="userSpaceOnUse" color-interpolation-filters="sRGB">
<feFlood flood-opacity="0" result="BackgroundImageFix"/>
<feColorMatrix in="SourceAlpha" type="matrix" values="0 0 0 0 0 0 0 0 0 0 0 0 0 0 0 0 0 0 127 0" result="hardAlpha"/>
<feOffset dy="4"/>
<feGaussianBlur stdDeviation="2"/>
<feComposite in2="hardAlpha" operator="out"/>
<feColorMatrix type="matrix" values="0 0 0 0 0 0 0 0 0 0 0 0 0 0 0 0 0 0 0.25 0"/>
<feBlend mode="normal" in2="BackgroundImageFix" result="effect1_dropShadow_1153_1387"/>
<feBlend mode="normal" in="SourceGraphic" in2="effect1_dropShadow_1153_1387" result="shape"/>
</filter>
</defs>
</svg>
